<svg xmlns="http://www.w3.org/2000/svg" fill="none" viewBox="0 0 207 40" height="40" width="207">
<path fill="black" d="M9.05806 39.6774C6.11613 39.6774 3.87097 39.2387 2.32258 38.3613C0.774194 37.5097 0 36.4258 0 35.1097C0 34 0.490323 33.0323 1.47097 32.2065C2.45161 31.3806 3.85806 30.7097 5.69032 30.1935L6.58065 30.5419C6.14194 30.9806 5.79355 31.4968 5.53548 32.0903C5.30323 32.6839 5.1871 33.329 5.1871 34.0258C5.1871 35.3677 5.6129 36.4 6.46452 37.1226C7.34194 37.8452 8.59355 38.2065 10.2194 38.2065C11.4581 38.2065 12.5419 38.0129 13.471 37.6258C14.4258 37.2387 15.1613 36.6968 15.6774 36C16.2194 35.329 16.4903 34.5419 16.4903 33.6387C16.4903 32.7871 16.1935 32.1419 15.6 31.7032C15.0323 31.2645 14.1677 31.0452 13.0065 31.0452H8.74839C6.99355 31.0452 5.5871 30.6968 4.52903 30C3.49677 29.2774 2.98064 28.3226 2.98064 27.1355C2.98064 26.129 3.32903 25.2 4.02581 24.3484C4.72258 23.471 5.81936 22.6194 7.31613 21.7935L8.55484 21.9871C8.19355 22.2968 7.92258 22.5935 7.74194 22.8774C7.5871 23.1613 7.50968 23.4581 7.50968 23.7677C7.50968 24.2839 7.75484 24.6839 8.24516 24.9677C8.73548 25.2516 9.41935 25.3935 10.2968 25.3935H14.4C16.8774 25.3935 18.7613 25.8839 20.0516 26.8645C21.3419 27.8452 21.9871 29.2645 21.9871 31.1226C21.9871 32.8516 21.4452 34.3484 20.3613 35.6129C19.3032 36.9032 17.8064 37.8968 15.871 38.5935C13.9355 39.3161 11.6645 39.6774 9.05806 39.6774ZM10.2194 22.1806C7.53548 22.1806 5.41935 21.6387 3.87097 20.5548C2.34839 19.4452 1.5871 17.9226 1.5871 15.9871C1.5871 14.0516 2.34839 12.5419 3.87097 11.4581C5.39355 10.3484 7.49677 9.79355 10.1806 9.79355C12.8387 9.79355 14.9032 10.3355 16.3742 11.4194C17.8452 12.4774 18.5806 14 18.5806 15.9871C18.5806 17.9484 17.8452 19.471 16.3742 20.5548C14.9032 21.6387 12.8516 22.1806 10.2194 22.1806ZM10.2581 20.7484C11.0323 20.7484 11.6387 20.3613 12.0774 19.5871C12.5161 18.7871 12.7355 17.5871 12.7355 15.9871C12.7355 14.3613 12.5161 13.1613 12.0774 12.3871C11.6645 11.6129 11.071 11.2258 10.2968 11.2258C9.52258 11.2258 8.91613 11.6129 8.47742 12.3871C8.06452 13.1613 7.85806 14.3613 7.85806 15.9871C7.85806 17.5871 8.06452 18.7871 8.47742 19.5871C8.89032 20.3613 9.48387 20.7484 10.2581 20.7484ZM21.9484 15.2516C21.4065 15.2516 21.0065 15.0839 20.7484 14.7484C20.4903 14.3871 20.2839 13.9871 20.129 13.5484C19.9742 13.1097 19.8065 12.7226 19.6258 12.3871C19.4452 12.0516 19.1871 11.8839 18.8516 11.8839C18.671 11.8839 18.4387 11.9742 18.1548 12.1548C17.8968 12.3097 17.6258 12.5419 17.3419 12.8516C17.0839 13.1613 16.8387 13.5613 16.6065 14.0516L15.871 12.7742C16.4387 11.871 17.1613 11.1484 18.0387 10.6065C18.9161 10.0645 19.8581 9.79355 20.8645 9.79355C21.7935 9.79355 22.529 10.0516 23.071 10.5677C23.6387 11.0581 23.9226 11.7548 23.9226 12.6581C23.9226 13.4065 23.7419 14.0258 23.3806 14.5161C23.0194 15.0065 22.5419 15.2516 21.9484 15.2516Z"></path>
<path fill="black" d="M25.883 30.4258V28.9161C27.0185 28.8903 27.8056 28.6839 28.2443 28.2968C28.683 27.9097 28.9023 27.1871 28.9023 26.129V15.2516C28.9023 14.1161 28.683 13.2774 28.2443 12.7355C27.8314 12.1677 27.0443 11.871 25.883 11.8452V10.3355C26.4249 10.3613 26.954 10.3871 27.4701 10.4129C28.012 10.4387 28.541 10.4516 29.0572 10.4516C30.3475 10.4516 31.5604 10.4129 32.6959 10.3355C33.8314 10.2323 34.8894 10.0903 35.8701 9.90968V26.129C35.8701 27.2129 36.0894 27.9484 36.5281 28.3355C36.9927 28.6968 37.7669 28.8903 38.8507 28.9161V30.4258C38.4378 30.4 37.8959 30.3871 37.2249 30.3871C36.554 30.3613 35.8056 30.3355 34.9798 30.3097C34.1798 30.2839 33.354 30.271 32.5023 30.271C31.2894 30.271 30.0378 30.2968 28.7475 30.3484C27.483 30.3742 26.5281 30.4 25.883 30.4258ZM32.1927 6.96774C31.212 6.96774 30.3217 6.68387 29.5217 6.11613C28.7217 5.52258 28.3217 4.64516 28.3217 3.48387C28.3217 2.32258 28.7217 1.45807 29.5217 0.890322C30.3217 0.296774 31.212 0 32.1927 0C33.1733 0 34.0636 0.296774 34.8636 0.890322C35.6636 1.45807 36.0636 2.32258 36.0636 3.48387C36.0636 4.64516 35.6507 5.52258 34.8249 6.11613C34.0249 6.68387 33.1475 6.96774 32.1927 6.96774Z"></path>
<path fill="black" d="M54.6761 30.9677C53.5407 30.9677 52.5213 30.8 51.6181 30.4645C50.7149 30.129 50.0181 29.6774 49.5278 29.1097L49.7987 27.7161C50.0826 28.0516 50.4568 28.3355 50.9213 28.5677C51.3858 28.7742 51.889 28.8774 52.431 28.8774C53.902 28.8774 54.9858 28.2065 55.6826 26.8645C56.4052 25.5226 56.7665 23.3935 56.7665 20.4774C56.7665 17.8452 56.4697 15.8452 55.8761 14.4774C55.2826 13.1097 54.3923 12.4258 53.2052 12.4258C52.6116 12.4258 52.0439 12.6065 51.502 12.9677C50.9858 13.3032 50.56 13.8194 50.2245 14.5161L50.031 13.2C50.5213 12.1419 51.2697 11.3161 52.2761 10.7226C53.2826 10.1032 54.4826 9.79355 55.8761 9.79355C57.6052 9.79355 59.0632 10.2194 60.2503 11.071C61.4632 11.8968 62.3923 13.0968 63.0374 14.671C63.6826 16.2452 64.0052 18.1161 64.0052 20.2839C64.0052 22.5548 63.631 24.4903 62.8826 26.0903C62.16 27.6903 61.102 28.9032 59.7084 29.729C58.3407 30.5548 56.6632 30.9677 54.6761 30.9677ZM43.5278 31.0839L42.4439 29.8452C42.702 29.5097 42.8955 29.1742 43.0245 28.8387C43.1794 28.4774 43.2826 28.0645 43.3342 27.6C43.3858 27.1355 43.4116 26.5806 43.4116 25.9355V5.49677C43.4116 4.33548 43.1923 3.48387 42.7536 2.94194C42.3407 2.4 41.5665 2.11613 40.431 2.09032V0.580645C40.9729 0.606451 41.502 0.632257 42.0181 0.658064C42.56 0.68387 43.0891 0.696774 43.6052 0.696774C44.8955 0.696774 46.1084 0.658064 47.2439 0.580645C48.3794 0.477419 49.4245 0.335484 50.3794 0.154839V29.6516C49.5794 29.471 48.7407 29.4194 47.8632 29.4968C47.0116 29.5742 46.1987 29.7548 45.4245 30.0387C44.6761 30.3226 44.0439 30.671 43.5278 31.0839Z"></path>
<path fill="black" d="M80.7143 30.9677C79.5788 30.9677 78.5594 30.8 77.6562 30.4645C76.753 30.129 76.0562 29.6774 75.5659 29.1097L75.8369 27.7161C76.1207 28.0516 76.4949 28.3355 76.9594 28.5677C77.424 28.7742 77.9272 28.8774 78.4691 28.8774C79.9401 28.8774 81.0239 28.2065 81.7207 26.8645C82.4433 25.5226 82.8046 23.3935 82.8046 20.4774C82.8046 17.8452 82.5078 15.8452 81.9143 14.4774C81.3207 13.1097 80.4304 12.4258 79.2433 12.4258C78.6497 12.4258 78.082 12.6065 77.5401 12.9677C77.0239 13.3032 76.5981 13.8194 76.2627 14.5161L76.0691 13.2C76.5594 12.1419 77.3078 11.3161 78.3143 10.7226C79.3207 10.1032 80.5207 9.79355 81.9143 9.79355C83.6433 9.79355 85.1014 10.2194 86.2885 11.071C87.5014 11.8968 88.4304 13.0968 89.0756 14.671C89.7207 16.2452 90.0433 18.1161 90.0433 20.2839C90.0433 22.5548 89.6691 24.4903 88.9207 26.0903C88.1981 27.6903 87.1401 28.9032 85.7465 29.729C84.3788 30.5548 82.7014 30.9677 80.7143 30.9677ZM69.5659 31.0839L68.482 29.8452C68.7401 29.5097 68.9336 29.1742 69.0627 28.8387C69.2175 28.4774 69.3207 28.0645 69.3723 27.6C69.424 27.1355 69.4498 26.5806 69.4498 25.9355V5.49677C69.4498 4.33548 69.2304 3.48387 68.7917 2.94194C68.3788 2.4 67.6046 2.11613 66.4691 2.09032V0.580645C67.011 0.606451 67.5401 0.632257 68.0562 0.658064C68.5981 0.68387 69.1272 0.696774 69.6433 0.696774C70.9336 0.696774 72.1465 0.658064 73.282 0.580645C74.4175 0.477419 75.4627 0.335484 76.4175 0.154839V29.6516C75.6175 29.471 74.7788 29.4194 73.9014 29.4968C73.0498 29.5742 72.2369 29.7548 71.4627 30.0387C70.7143 30.3226 70.082 30.671 69.5659 31.0839Z"></path>
<path fill="black" d="M99.5769 30.9677C97.9253 30.9677 96.6091 30.5419 95.6285 29.6903C94.6737 28.8129 94.1962 27.6258 94.1962 26.129C94.1962 24.9677 94.4543 24.0258 94.9704 23.3032C95.5124 22.5548 96.1962 21.9484 97.022 21.4839C97.8737 21.0194 98.7769 20.6323 99.7317 20.3226C100.687 19.9871 101.577 19.6774 102.403 19.3935C103.254 19.0839 103.951 18.7226 104.493 18.3097C105.035 17.8968 105.306 17.3677 105.306 16.7226V14.8645C105.306 13.729 105.035 12.8645 104.493 12.271C103.977 11.6774 103.229 11.3806 102.248 11.3806C101.525 11.3806 100.945 11.4968 100.506 11.729C100.067 11.9355 99.8479 12.2452 99.8479 12.6581C99.8479 13.0194 99.964 13.3677 100.196 13.7032C100.428 14.0387 100.661 14.4 100.893 14.7871C101.125 15.1484 101.241 15.5613 101.241 16.0258C101.241 16.671 100.958 17.1871 100.39 17.5742C99.8479 17.9613 99.1382 18.1548 98.2608 18.1548C97.2801 18.1548 96.493 17.8839 95.8995 17.3419C95.3317 16.8 95.0479 16.0516 95.0479 15.0968C95.0479 14.0129 95.4221 13.0839 96.1704 12.3097C96.9446 11.5097 98.0285 10.8903 99.4221 10.4516C100.816 10.0129 102.441 9.79355 104.299 9.79355C106.209 9.79355 107.745 10.0387 108.906 10.529C110.067 10.9935 110.919 11.7806 111.461 12.8903C112.003 13.9742 112.274 15.471 112.274 17.3806V27.1355C112.274 27.7032 112.351 28.1032 112.506 28.3355C112.661 28.5677 112.919 28.6839 113.28 28.6839C113.538 28.6839 113.796 28.6323 114.054 28.529C114.312 28.4258 114.609 28.2839 114.945 28.1032L115.487 29.3419C114.816 29.8839 113.99 30.2839 113.009 30.5419C112.054 30.8258 110.983 30.9677 109.796 30.9677C106.932 30.9677 105.448 29.9871 105.345 28.0258C104.648 29.0065 103.822 29.7419 102.867 30.2323C101.912 30.7226 100.816 30.9677 99.5769 30.9677ZM103.099 27.6C103.538 27.6 103.938 27.5226 104.299 27.3677C104.687 27.1871 105.022 26.9032 105.306 26.5161V18.9677C105.125 19.3548 104.867 19.7032 104.532 20.0129C104.196 20.3226 103.822 20.6323 103.409 20.9419C102.996 21.2258 102.596 21.5484 102.209 21.9097C101.848 22.2452 101.538 22.6581 101.28 23.1484C101.048 23.6387 100.932 24.2452 100.932 24.9677C100.932 25.7935 101.112 26.4387 101.474 26.9032C101.861 27.3677 102.403 27.6 103.099 27.6Z"></path>
<path fill="black" d="M117.567 30.4258V28.9161C118.728 28.8903 119.515 28.671 119.928 28.2581C120.367 27.8452 120.586 27.1355 120.586 26.129V15.2516C120.586 14.0645 120.354 13.2129 119.889 12.6968C119.425 12.1548 118.651 11.871 117.567 11.8452V10.3355C118.496 10.3613 119.18 10.3871 119.618 10.4129C120.083 10.4387 120.625 10.4516 121.244 10.4516C123.722 10.4516 125.825 10.271 127.554 9.90968V25.7419C127.554 26.9032 127.851 27.7161 128.444 28.1806C129.064 28.6452 130.16 28.8903 131.734 28.9161V30.4258C131.244 30.4 130.573 30.3871 129.722 30.3871C128.896 30.3613 127.993 30.3355 127.012 30.3097C126.057 30.2839 125.128 30.271 124.225 30.271C122.857 30.271 121.554 30.2968 120.315 30.3484C119.102 30.3742 118.186 30.4 117.567 30.4258ZM133.244 18.4645C132.496 18.4645 131.902 18.271 131.464 17.8839C131.025 17.471 130.805 16.929 130.805 16.2581C130.805 15.871 130.87 15.5097 130.999 15.1742C131.128 14.8387 131.257 14.5161 131.386 14.2065C131.515 13.8968 131.58 13.6 131.58 13.3161C131.58 12.7226 131.244 12.4258 130.573 12.4258C130.16 12.4258 129.747 12.529 129.334 12.7355C128.922 12.9419 128.547 13.2387 128.212 13.6258C127.876 13.9871 127.605 14.4387 127.399 14.9806L127.36 13.2774C127.902 12.2194 128.676 11.3806 129.683 10.7613C130.689 10.1161 131.76 9.79355 132.896 9.79355C134.134 9.79355 135.102 10.1677 135.799 10.9161C136.496 11.6645 136.844 12.7097 136.844 14.0516C136.844 15.3935 136.509 16.4645 135.838 17.2645C135.193 18.0645 134.328 18.4645 133.244 18.4645Z"></path>
<path fill="black" d="M149.589 30.9677C147.473 30.9677 145.628 30.5677 144.053 29.7677C142.505 28.9677 141.292 27.7935 140.415 26.2452C139.537 24.671 139.098 22.7226 139.098 20.4C139.098 18.0774 139.537 16.129 140.415 14.5548C141.292 12.9806 142.518 11.7935 144.092 10.9935C145.666 10.1935 147.499 9.79355 149.589 9.79355C151.705 9.79355 153.537 10.1935 155.086 10.9935C156.66 11.7935 157.886 12.9806 158.763 14.5548C159.64 16.129 160.079 18.0774 160.079 20.4C160.079 22.7226 159.64 24.671 158.763 26.2452C157.886 27.7935 156.66 28.9677 155.086 29.7677C153.537 30.5677 151.705 30.9677 149.589 30.9677ZM149.589 29.4581C150.518 29.4581 151.292 28.7355 151.911 27.2903C152.531 25.8452 152.84 23.5484 152.84 20.4C152.84 17.1742 152.531 14.8516 151.911 13.4323C151.292 12.0129 150.518 11.3032 149.589 11.3032C148.66 11.3032 147.886 12.0129 147.266 13.4323C146.647 14.8516 146.337 17.1742 146.337 20.4C146.337 23.5484 146.647 25.8452 147.266 27.2903C147.886 28.7355 148.66 29.4581 149.589 29.4581Z"></path>
<path fill="black" d="M173.693 30.9677C172.584 30.9677 171.655 30.8516 170.906 30.6194C170.184 30.3871 169.564 30.1677 169.048 29.9613C168.558 29.729 168.106 29.6129 167.693 29.6129C167.022 29.6129 166.545 30 166.261 30.7742H164.751C164.829 30 164.867 29.2387 164.867 28.4903C164.893 27.7419 164.906 26.929 164.906 26.0516C164.932 25.1484 164.932 24.1161 164.906 22.9548H166.416C166.958 25.0452 167.797 26.6452 168.932 27.7548C170.067 28.8387 171.461 29.3806 173.113 29.3806C174.093 29.3806 174.855 29.1742 175.397 28.7613C175.964 28.3484 176.248 27.7677 176.248 27.0194C176.248 26.271 175.913 25.6387 175.242 25.1226C174.571 24.6065 173.371 24.0774 171.642 23.5355C169.345 22.7871 167.655 21.8194 166.571 20.6323C165.487 19.4194 164.945 17.9484 164.945 16.2194C164.945 14.2839 165.577 12.7355 166.842 11.5742C168.132 10.3871 169.861 9.79355 172.029 9.79355C173.087 9.79355 173.99 9.90968 174.738 10.1419C175.487 10.3484 176.119 10.5677 176.635 10.8C177.151 11.0323 177.59 11.1484 177.951 11.1484C178.235 11.1484 178.467 11.0581 178.648 10.8774C178.829 10.671 178.971 10.3742 179.074 9.9871H180.584C180.532 10.5548 180.493 11.1355 180.467 11.729C180.442 12.3226 180.416 13.0452 180.39 13.8968C180.39 14.7226 180.403 15.7548 180.429 16.9935H178.919C178.377 15.1355 177.59 13.7419 176.558 12.8129C175.526 11.8581 174.326 11.3806 172.958 11.3806C172.003 11.3806 171.255 11.6 170.713 12.0387C170.171 12.4516 169.9 13.0452 169.9 13.8194C169.9 14.6194 170.248 15.2903 170.945 15.8323C171.667 16.3484 172.945 16.8774 174.777 17.4194C176.997 18.0387 178.622 18.9032 179.655 20.0129C180.713 21.0968 181.242 22.5419 181.242 24.3484C181.242 26.4387 180.558 28.0645 179.19 29.2258C177.848 30.3871 176.016 30.9677 173.693 30.9677Z"></path>
<path fill="black" d="M190.745 30.9677C189.093 30.9677 187.777 30.5419 186.797 29.6903C185.842 28.8129 185.364 27.6258 185.364 26.129C185.364 24.9677 185.622 24.0258 186.139 23.3032C186.68 22.5548 187.364 21.9484 188.19 21.4839C189.042 21.0194 189.945 20.6323 190.9 20.3226C191.855 19.9871 192.745 19.6774 193.571 19.3935C194.422 19.0839 195.119 18.7226 195.661 18.3097C196.203 17.8968 196.474 17.3677 196.474 16.7226V14.8645C196.474 13.729 196.203 12.8645 195.661 12.271C195.145 11.6774 194.397 11.3806 193.416 11.3806C192.693 11.3806 192.113 11.4968 191.674 11.729C191.235 11.9355 191.016 12.2452 191.016 12.6581C191.016 13.0194 191.132 13.3677 191.364 13.7032C191.597 14.0387 191.829 14.4 192.061 14.7871C192.293 15.1484 192.41 15.5613 192.41 16.0258C192.41 16.671 192.126 17.1871 191.558 17.5742C191.016 17.9613 190.306 18.1548 189.429 18.1548C188.448 18.1548 187.661 17.8839 187.068 17.3419C186.5 16.8 186.216 16.0516 186.216 15.0968C186.216 14.0129 186.59 13.0839 187.339 12.3097C188.113 11.5097 189.197 10.8903 190.59 10.4516C191.984 10.0129 193.61 9.79355 195.468 9.79355C197.377 9.79355 198.913 10.0387 200.074 10.529C201.235 10.9935 202.087 11.7806 202.629 12.8903C203.171 13.9742 203.442 15.471 203.442 17.3806V27.1355C203.442 27.7032 203.519 28.1032 203.674 28.3355C203.829 28.5677 204.087 28.6839 204.448 28.6839C204.706 28.6839 204.964 28.6323 205.222 28.529C205.48 28.4258 205.777 28.2839 206.113 28.1032L206.655 29.3419C205.984 29.8839 205.158 30.2839 204.177 30.5419C203.222 30.8258 202.151 30.9677 200.964 30.9677C198.1 30.9677 196.616 29.9871 196.513 28.0258C195.816 29.0065 194.99 29.7419 194.035 30.2323C193.081 30.7226 191.984 30.9677 190.745 30.9677ZM194.268 27.6C194.706 27.6 195.106 27.5226 195.468 27.3677C195.855 27.1871 196.19 26.9032 196.474 26.5161V18.9677C196.293 19.3548 196.035 19.7032 195.7 20.0129C195.364 20.3226 194.99 20.6323 194.577 20.9419C194.164 21.2258 193.764 21.5484 193.377 21.9097C193.016 22.2452 192.706 22.6581 192.448 23.1484C192.216 23.6387 192.1 24.2452 192.1 24.9677C192.1 25.7935 192.28 26.4387 192.642 26.9032C193.029 27.3677 193.571 27.6 194.268 27.6Z"></path>
</svg>
